HIERARCHY
ROOT Hips
{
	OFFSET 0.000000 0.000000 0.000000
	CHANNELS 6 Xposition Yposition Zposition Xrotation Yrotation Zrotation
	JOINT LeftUpLeg_virtual
	{
		OFFSET 0.000000 0.000000 0.000000
		CHANNELS 3 Xrotation Yrotation Zrotation
		JOINT LeftUpLeg
		{
			OFFSET 11.394100 -6.187798 -0.413800
			CHANNELS 3 Xrotation Yrotation Zrotation
			JOINT LeftLeg
			{
				OFFSET 0.430247 -32.302673 3.732800
				CHANNELS 3 Xrotation Yrotation Zrotation
				JOINT LeftFoot
				{
					OFFSET -0.430247 -48.264931 -6.423300
					CHANNELS 3 Xrotation Yrotation Zrotation
					JOINT LeftToeBase
					{
						OFFSET 4.230900 -16.068199 23.438400
						CHANNELS 3 Xrotation Yrotation Zrotation
						JOINT LeftToe_End
						{
							OFFSET 4.510700 0.695400 19.974600
							CHANNELS 3 Xrotation Yrotation Zrotation
							End Site
							{
								OFFSET 0 0 0
							}
						}
					}
				}
			}
		}
	}
	JOINT RightUpLeg_virtual
	{
		OFFSET 0.000000 0.000000 0.000000
		CHANNELS 3 Xrotation Yrotation Zrotation
		JOINT RightUpLeg
		{
			OFFSET -11.333700 -6.187798 -0.413800
			CHANNELS 3 Xrotation Yrotation Zrotation
			JOINT RightLeg
			{
				OFFSET -0.430392 -32.302628 3.733000
				CHANNELS 3 Xrotation Yrotation Zrotation
				JOINT RightFoot
				{
					OFFSET 0.430392 -48.264973 -6.423500
					CHANNELS 3 Xrotation Yrotation Zrotation
					JOINT RightToeBase
					{
						OFFSET -4.230900 -16.068199 23.438400
						CHANNELS 3 Xrotation Yrotation Zrotation
						JOINT RightToe_End
						{
							OFFSET -4.510700 0.695400 19.974600
							CHANNELS 3 Xrotation Yrotation Zrotation
							End Site
							{
								OFFSET 0 0 0
							}
						}
					}
				}
			}
		}
	}
	JOINT Spine_virtual
	{
		OFFSET 0.000000 0.000000 0.000000
		CHANNELS 3 Xrotation Yrotation Zrotation
		JOINT Spine
		{
			OFFSET -0.002400 12.777504 0.315300
			CHANNELS 3 Xrotation Yrotation Zrotation
			JOINT Spine1
			{
				OFFSET -0.002067 5.816869 0.032633
				CHANNELS 3 Xrotation Yrotation Zrotation
				JOINT Spine1_split
				{
					OFFSET -0.002067 5.816869 0.032633
					CHANNELS 3 Xrotation Yrotation Zrotation
					JOINT Spine2
					{
						OFFSET -0.002067 5.816869 0.032633
						CHANNELS 3 Xrotation Yrotation Zrotation
						JOINT Neck_virtual
						{
							OFFSET 0.000000 0.000000 0.000000
							CHANNELS 3 Xrotation Yrotation Zrotation
							JOINT Neck
							{
								OFFSET -0.003700 21.199493 -0.826900
								CHANNELS 3 Xrotation Yrotation Zrotation
								JOINT Head
								{
									OFFSET 0.000000 20.442200 4.834800
									CHANNELS 3 Xrotation Yrotation Zrotation
									JOINT HeadTop_End
									{
										OFFSET 0.000000 34.668396 4.968400
										CHANNELS 3 Xrotation Yrotation Zrotation
										End Site
										{
											OFFSET 0 0 0
										}
									}
								}
							}
						}
						JOINT LeftShoulder_virtual
						{
							OFFSET 0.000000 0.000000 0.000000
							CHANNELS 3 Xrotation Yrotation Zrotation
							JOINT LeftShoulder
							{
								OFFSET 3.288150 8.794197 -1.372250
								CHANNELS 3 Xrotation Yrotation Zrotation
								JOINT LeftShoulder_split
								{
									OFFSET 3.288150 8.794197 -1.372250
									CHANNELS 3 Xrotation Yrotation Zrotation
									JOINT LeftArm
									{
										OFFSET 11.953299 -2.279007 -0.146200
										CHANNELS 3 Xrotation Yrotation Zrotation
										JOINT LeftForeArm
										{
											OFFSET 18.448900 0.000000 0.000000
											CHANNELS 3 Xrotation Yrotation Zrotation
											JOINT LeftHand
											{
												OFFSET 29.527798 0.000000 0.000000
												CHANNELS 3 Xrotation Yrotation Zrotation
												End Site
												{
													OFFSET 0 0 0
												}
											}
										}
									}
								}
							}
						}
						JOINT RightShoulder_virtual
						{
							OFFSET 0.000000 0.000000 0.000000
							CHANNELS 3 Xrotation Yrotation Zrotation
							JOINT RightShoulder
							{
								OFFSET -3.249400 8.794197 -1.372250
								CHANNELS 3 Xrotation Yrotation Zrotation
								JOINT RightShoulder_split
								{
									OFFSET -3.249400 8.794197 -1.372250
									CHANNELS 3 Xrotation Yrotation Zrotation
									JOINT RightArm
									{
										OFFSET -11.953299 -2.279007 -0.146200
										CHANNELS 3 Xrotation Yrotation Zrotation
										JOINT RightForeArm
										{
											OFFSET -18.448900 0.000000 0.000000
											CHANNELS 3 Xrotation Yrotation Zrotation
											JOINT RightHand
											{
												OFFSET -29.527802 0.000000 0.000000
												CHANNELS 3 Xrotation Yrotation Zrotation
												End Site
												{
													OFFSET 0 0 0
												}
											}
										}
									}
								}
							}
						}
					}
				}
			}
		}
	}
}
MOTION
Frames: 11
Frame Time: 0.03333333
1.748678 49.091240 -3.195843 0.000000 0.000000 0.000000 179.537533 -8.130118 173.727624 -89.362172 -29.408387 19.790955 110.271724 -7.608368 -2.013717 -14.911655 2.821636 -15.388266 -11.419198 0.294478 0.587704 0.000000 0.000000 0.000000 179.406202 -5.576121 173.974740 -51.842297 13.831169 -30.935139 99.498651 9.256173 -0.710009 -29.402028 -9.377376 28.339643 -4.258413 -4.895441 -0.435829 0.000000 0.000000 0.000000 -179.914600 -6.392495 171.958263 7.795491 4.814316 -3.155965 7.891116 7.139732 -3.948852 0.605120 -3.217504 0.671976 0.000000 0.000000 0.000000 8.101766 6.602404 -3.838617 -2.676527 23.864304 6.762778 5.753190 33.902143 -24.201426 0.000000 0.000000 0.000000 8.633086 6.947297 -4.087576 0.979323 -13.392917 -10.231105 -3.434766 -1.585273 -3.837980 3.605701 2.473934 -31.646681 36.549824 -41.036200 1.120052 0.000000 0.000000 0.000000 8.162235 6.887724 -4.431199 5.094457 -18.589977 14.051474 1.738302 2.887759 -1.648450 13.220091 -13.162925 60.807658 34.371397 50.012838 -8.524967 0.000000 0.000000 0.000000 
1.744367 49.093906 -3.190308 0.000000 0.000000 0.000000 179.530580 -8.130583 173.730807 -89.366543 -29.406959 19.797457 110.268029 -7.602183 -2.009503 -14.893424 2.820521 -15.366237 -11.411594 0.295849 0.582915 0.000000 0.000000 0.000000 179.399809 -5.586740 173.981953 -51.843096 13.827475 -30.932247 99.484594 9.255028 -0.710522 -29.415835 -9.381582 28.340702 -4.259227 -4.889428 -0.440496 0.000000 0.000000 0.000000 -179.928875 -6.393841 171.966842 7.788722 4.811849 -3.147915 7.881507 7.137895 -3.939737 0.583662 -3.215415 0.673615 0.000000 0.000000 0.000000 8.100546 6.602731 -3.831107 -2.630522 23.878138 6.737830 5.741840 33.910100 -24.190947 0.000000 0.000000 0.000000 8.631518 6.945157 -4.078417 0.981016 -13.410177 -10.239228 -3.443832 -1.598908 -3.849969 3.572853 2.506561 -31.642863 36.543076 -41.002029 1.107856 0.000000 0.000000 0.000000 8.150981 6.884986 -4.422537 5.098549 -18.586652 14.039080 1.747783 2.867687 -1.649710 13.204722 -13.159156 60.806408 34.358430 49.988058 -8.523297 0.000000 0.000000 0.000000 
1.735186 49.098320 -3.189003 0.000000 0.000000 0.000000 179.508860 -8.145641 173.727801 -89.386467 -29.390249 19.795968 110.256950 -7.589494 -2.008437 -14.866539 2.820415 -15.338752 -11.403245 0.297914 0.578725 0.000000 0.000000 0.000000 179.379715 -5.609853 173.984821 -51.836522 13.819771 -30.937383 99.480489 9.255845 -0.709589 -29.431961 -9.384811 28.357038 -4.250054 -4.884646 -0.450494 0.000000 0.000000 0.000000 -179.953956 -6.408765 171.969383 7.779770 4.803768 -3.138131 7.869243 7.139586 -3.923492 0.584386 -3.205542 0.677668 0.000000 0.000000 0.000000 8.089233 6.607856 -3.816673 -2.541132 23.883595 6.695476 5.770605 33.919727 -24.232673 0.000000 0.000000 0.000000 8.624414 6.946363 -4.062681 0.978282 -13.452995 -10.260764 -3.451212 -1.597945 -3.862164 3.538825 2.561494 -31.645267 36.529416 -40.975213 1.095087 0.000000 0.000000 0.000000 8.133283 6.888084 -4.405199 5.107750 -18.587774 14.002507 1.763633 2.858601 -1.652850 13.169153 -13.123437 60.833920 34.332479 49.896933 -8.514975 0.000000 0.000000 0.000000 
1.724567 49.104973 -3.191376 0.000000 0.000000 0.000000 179.476198 -8.175471 173.718034 -89.426492 -29.357154 19.785402 110.240414 -7.570931 -2.010228 -14.838945 2.821616 -15.308628 -11.377644 0.301013 0.572889 0.000000 0.000000 0.000000 179.348665 -5.642414 173.981406 -51.813084 13.810164 -30.949868 99.485195 9.258198 -0.708473 -29.452780 -9.390356 28.390376 -4.234909 -4.881202 -0.462846 0.000000 0.000000 0.000000 -179.987028 -6.438098 171.962129 7.772331 4.792755 -3.128299 7.858448 7.147028 -3.902214 0.601074 -3.195675 0.677627 0.000000 0.000000 0.000000 8.072310 6.619029 -3.797628 -2.419663 23.878270 6.648557 5.843941 33.936717 -24.330575 0.000000 0.000000 0.000000 8.615753 6.951916 -4.042361 0.971436 -13.517027 -10.293677 -3.456069 -1.585487 -3.866006 3.499900 2.628577 -31.651315 36.510325 -40.962762 1.084444 0.000000 0.000000 0.000000 8.114964 6.898432 -4.381755 5.120963 -18.595079 13.944472 1.780568 2.859244 -1.666337 13.113655 -13.055533 60.890208 34.291655 49.741857 -8.499120 0.000000 0.000000 0.000000 
1.713327 49.112568 -3.194256 0.000000 0.000000 0.000000 179.436952 -8.217856 173.702885 -89.490662 -29.314123 19.760758 110.222294 -7.550754 -2.009420 -14.807816 2.820989 -15.283983 -11.323904 0.304860 0.565955 0.000000 0.000000 0.000000 179.310812 -5.683474 173.971202 -51.763043 13.798026 -30.967593 99.491001 9.259931 -0.706758 -29.483550 -9.403390 28.432665 -4.220727 -4.880573 -0.472881 0.000000 0.000000 0.000000 179.975403 -6.481943 171.947294 7.768797 4.783506 -3.119769 7.852751 7.160881 -3.877903 0.615227 -3.186914 0.679222 0.000000 0.000000 0.000000 8.056072 6.636662 -3.776770 -2.279889 23.864261 6.613921 5.965702 33.965861 -24.485627 0.000000 0.000000 0.000000 8.611251 6.962519 -4.019442 0.962400 -13.593507 -10.333832 -3.450892 -1.570834 -3.859889 3.452964 2.700471 -31.657879 36.488780 -40.974141 1.080240 0.000000 0.000000 0.000000 8.102218 6.916072 -4.355456 5.136657 -18.615165 13.868236 1.786904 2.859302 -1.686323 13.041049 -12.956442 60.967730 34.239072 49.535991 -8.479850 0.000000 0.000000 0.000000 
1.702253 49.119316 -3.192719 0.000000 0.000000 0.000000 179.396148 -8.269726 173.683610 -89.577180 -29.269830 19.718186 110.201626 -7.533053 -2.002786 -14.769514 2.814476 -15.266424 -11.253824 0.306768 0.566412 0.000000 0.000000 0.000000 179.269981 -5.735294 173.951476 -51.680165 13.782304 -30.989873 99.489184 9.259409 -0.703181 -29.530190 -9.427872 28.475205 -4.213013 -4.882725 -0.478045 0.000000 0.000000 0.000000 179.937454 -6.537149 171.925328 7.771369 4.780277 -3.113467 7.855403 7.181550 -3.853086 0.619500 -3.178128 0.687961 0.000000 0.000000 0.000000 8.046389 6.659772 -3.756814 -2.136708 23.842756 6.604149 6.136300 34.008786 -24.694477 0.000000 0.000000 0.000000 8.617443 6.977770 -3.995719 0.953196 -13.671624 -10.376052 -3.439748 -1.554562 -3.847999 3.389479 2.764376 -31.661041 36.463740 -41.015911 1.085063 0.000000 0.000000 0.000000 8.100657 6.939263 -4.329373 5.153023 -18.653417 13.777794 1.789544 2.857280 -1.714800 12.956361 -12.829156 61.062253 34.181043 49.297399 -8.464224 0.000000 0.000000 0.000000 
1.693653 49.126953 -3.189331 0.000000 0.000000 0.000000 179.357885 -8.331098 173.660702 -89.679113 -29.231352 19.659415 110.177290 -7.518287 -1.992475 -14.724056 2.801159 -15.248396 -11.182688 0.305171 0.576155 0.000000 0.000000 0.000000 179.230762 -5.796084 173.924415 -51.564383 13.759531 -31.012337 99.473782 9.252552 -0.694117 -29.589377 -9.467118 28.511378 -4.216343 -4.888515 -0.476099 0.000000 0.000000 0.000000 179.900817 -6.600911 171.899551 7.778885 4.785946 -3.109839 7.869334 7.207386 -3.828661 0.616075 -3.159910 0.698161 0.000000 0.000000 0.000000 8.048114 6.686355 -3.739071 -2.001863 23.816427 6.629275 6.348669 34.063854 -24.944964 0.000000 0.000000 0.000000 8.637619 6.996143 -3.972875 0.946138 -13.742565 -10.418637 -3.426539 -1.540599 -3.834470 3.301972 2.810921 -31.654778 36.437727 -41.090698 1.103234 0.000000 0.000000 0.000000 8.113274 6.965286 -4.305791 5.169941 -18.712767 13.676026 1.795076 2.861715 -1.744693 12.871551 -12.677716 61.175785 34.121989 49.036927 -8.454476 0.000000 0.000000 0.000000 
1.687796 49.136215 -3.183292 0.000000 0.000000 0.000000 179.324991 -8.402126 173.633353 -89.788164 -29.201811 19.587465 110.148883 -7.506781 -1.981424 -14.670323 2.781279 -15.226343 -11.114921 0.300566 0.588463 0.000000 0.000000 0.000000 179.198441 -5.864781 173.894608 -51.419051 13.728316 -31.036342 99.446031 9.240248 -0.679376 -29.656367 -9.519616 28.539841 -4.229283 -4.898569 -0.468637 0.000000 0.000000 0.000000 179.870218 -6.666795 171.873596 7.789464 4.801283 -3.108829 7.895654 7.235155 -3.805290 0.617548 -3.137572 0.701160 0.000000 0.000000 0.000000 8.064676 6.713969 -3.723797 -1.885358 23.788227 6.692345 6.589154 34.128235 -25.220491 0.000000 0.000000 0.000000 8.673100 7.015299 -3.951805 0.942826 -13.800844 -10.458576 -3.408595 -1.524712 -3.828789 3.192064 2.831840 -31.631361 36.409297 -41.194630 1.134640 0.000000 0.000000 0.000000 8.140529 6.991309 -4.285227 5.187778 -18.793100 13.569214 1.799824 2.873716 -1.768777 12.795470 -12.506821 61.314465 34.057888 48.746794 -8.442834 0.000000 0.000000 0.000000 
1.683327 49.147438 -3.173824 0.000000 0.000000 0.000000 179.300006 -8.478619 173.603451 -89.894585 -29.181659 19.508234 110.117095 -7.498051 -1.972434 -14.609906 2.758906 -15.198207 -11.051023 0.294394 0.596402 0.000000 0.000000 0.000000 179.174481 -5.940419 173.865676 -51.253907 13.689393 -31.064663 99.406177 9.226372 -0.660959 -29.727504 -9.577238 28.566716 -4.245464 -4.911835 -0.459176 0.000000 0.000000 0.000000 179.847938 -6.734194 171.849308 7.802524 4.824190 -3.109802 7.933288 7.262641 -3.783847 0.619889 -3.115116 0.701929 0.000000 0.000000 0.000000 8.095743 6.739923 -3.710850 -1.796054 23.758492 6.790858 6.840720 34.196387 -25.501459 0.000000 0.000000 0.000000 8.721329 7.033127 -3.933632 0.943295 -13.844256 -10.495810 -3.387028 -1.512063 -3.829880 3.067699 2.821613 -31.586548 36.372328 -41.306436 1.170985 0.000000 0.000000 0.000000 8.181271 7.015524 -4.268199 5.205837 -18.890763 13.463210 1.803825 2.901153 -1.789232 12.727557 -12.328691 61.479352 33.984648 48.421690 -8.421583 0.000000 0.000000 0.000000 
1.679580 49.159687 -3.163067 0.000000 0.000000 0.000000 179.283545 -8.557927 173.574382 -89.991758 -29.168555 19.428564 110.084713 -7.491466 -1.967139 -14.548752 2.740337 -15.165465 -10.988892 0.288604 0.595687 0.000000 0.000000 0.000000 179.158936 -6.019027 173.840376 -51.083900 13.645857 -31.099555 99.357211 9.215899 -0.641233 -29.797581 -9.630991 28.597555 -4.258324 -4.926939 -0.451972 0.000000 0.000000 0.000000 179.833499 -6.802543 171.828503 7.817000 4.851344 -3.112289 7.980040 7.288075 -3.765032 0.615066 -3.087334 0.698372 0.000000 0.000000 0.000000 8.138678 6.763768 -3.700322 -1.735766 23.727836 6.915557 7.084176 34.260243 -25.770891 0.000000 0.000000 0.000000 8.778343 7.049265 -3.918862 0.945729 -13.873938 -10.531111 -3.365560 -1.499710 -3.828468 2.949697 2.784062 -31.522214 36.324281 -41.411147 1.206157 0.000000 0.000000 0.000000 8.232135 7.037170 -4.255131 5.223158 -19.000126 13.361317 1.804149 2.937777 -1.802357 12.656780 -12.156295 61.663228 33.900886 48.070489 -8.388738 0.000000 0.000000 0.000000 
1.675079 49.170013 -3.150875 0.000000 0.000000 0.000000 179.274024 -8.637105 173.551432 -90.072560 -29.161257 19.353140 110.054264 -7.486254 -1.964646 -14.494816 2.729497 -15.130689 -10.933529 0.283165 0.591441 0.000000 0.000000 0.000000 179.149824 -6.096379 173.820309 -50.921806 13.603281 -31.142435 99.303950 9.212480 -0.622834 -29.861375 -9.672831 28.636427 -4.259822 -4.942149 -0.450138 0.000000 0.000000 0.000000 179.826231 -6.870219 171.812521 7.833267 4.879054 -3.116393 8.032234 7.310833 -3.749540 0.613085 -3.059013 0.693770 0.000000 0.000000 0.000000 8.187954 6.784968 -3.691903 -1.706067 23.697212 7.051602 7.303714 34.312787 -26.012639 0.000000 0.000000 0.000000 8.839587 7.063650 -3.907079 0.948252 -13.894136 -10.562515 -3.344787 -1.489907 -3.820152 2.848564 2.728729 -31.446170 36.263373 -41.501049 1.235248 0.000000 0.000000 0.000000 8.289135 7.056658 -4.246024 5.239042 -19.113101 13.267436 1.802369 2.976798 -1.812173 12.570984 -11.998635 61.850696 33.810376 47.712201 -8.348392 0.000000 0.000000 0.000000 
